<mxfile host="Electron" agent="Mozilla/5.0 (Windows NT 10.0; Win64; x64) AppleWebKit/537.36 (KHTML, like Gecko) draw.io/24.7.5 Chrome/126.0.6478.183 Electron/31.3.0 Safari/537.36" version="24.7.5">
  <diagram id="C5RBs43oDa-KdzZeNtuy" name="Page-1">
    <mxGraphModel dx="1004" dy="746" grid="1" gridSize="10" guides="1" tooltips="1" connect="1" arrows="1" fold="1" page="1" pageScale="1" pageWidth="827" pageHeight="1169" math="0" shadow="0">
      <root>
        <mxCell id="WIyWlLk6GJQsqaUBKTNV-0" />
        <mxCell id="WIyWlLk6GJQsqaUBKTNV-1" parent="WIyWlLk6GJQsqaUBKTNV-0" />
        <mxCell id="eJmVRCtUWlt2wiEQet3n-5" value="生僻字" style="rounded=0;fontSize=14;fontFamily=SimSun;" parent="WIyWlLk6GJQsqaUBKTNV-1" vertex="1">
          <mxGeometry x="280" y="420" width="80" height="49" as="geometry" />
        </mxCell>
        <mxCell id="eJmVRCtUWlt2wiEQet3n-6" value="字频" style="ellipse;fontSize=14;fontFamily=SimSun;" parent="WIyWlLk6GJQsqaUBKTNV-1" vertex="1">
          <mxGeometry x="160" y="330" width="80" height="50" as="geometry" />
        </mxCell>
        <mxCell id="eJmVRCtUWlt2wiEQet3n-7" value="组词信息" style="ellipse;fontSize=14;fontFamily=SimSun;" parent="WIyWlLk6GJQsqaUBKTNV-1" vertex="1">
          <mxGeometry x="300" y="330" width="90" height="50" as="geometry" />
        </mxCell>
        <mxCell id="eJmVRCtUWlt2wiEQet3n-8" value="词种数" style="ellipse;dashed=1;fontSize=14;fontFamily=SimSun;" parent="WIyWlLk6GJQsqaUBKTNV-1" vertex="1">
          <mxGeometry x="215" y="240" width="80" height="50" as="geometry" />
        </mxCell>
        <mxCell id="eJmVRCtUWlt2wiEQet3n-9" value="词" style="ellipse;dashed=1;fontSize=14;fontFamily=SimSun;" parent="WIyWlLk6GJQsqaUBKTNV-1" vertex="1">
          <mxGeometry x="390" y="241" width="80" height="50" as="geometry" />
        </mxCell>
        <mxCell id="eJmVRCtUWlt2wiEQet3n-10" value="词频" style="ellipse;dashed=1;fontSize=14;fontFamily=SimSun;" parent="WIyWlLk6GJQsqaUBKTNV-1" vertex="1">
          <mxGeometry x="291" y="180" width="80" height="50" as="geometry" />
        </mxCell>
        <mxCell id="eJmVRCtUWlt2wiEQet3n-11" value="" style="curved=1;endArrow=classic;rounded=0;exitX=0.5;exitY=0;exitDx=0;exitDy=0;entryX=1;entryY=0.5;entryDx=0;entryDy=0;fontSize=14;fontFamily=SimSun;" parent="WIyWlLk6GJQsqaUBKTNV-1" source="eJmVRCtUWlt2wiEQet3n-5" target="eJmVRCtUWlt2wiEQet3n-6" edge="1">
          <mxGeometry width="50" height="50" relative="1" as="geometry">
            <mxPoint x="260" y="300" as="sourcePoint" />
            <mxPoint x="310" y="250" as="targetPoint" />
            <Array as="points">
              <mxPoint x="310" y="370" />
            </Array>
          </mxGeometry>
        </mxCell>
        <mxCell id="eJmVRCtUWlt2wiEQet3n-12" value="" style="curved=1;endArrow=classic;rounded=0;exitX=0.5;exitY=0;exitDx=0;exitDy=0;entryX=0.5;entryY=1;entryDx=0;entryDy=0;fontSize=14;fontFamily=SimSun;" parent="WIyWlLk6GJQsqaUBKTNV-1" source="eJmVRCtUWlt2wiEQet3n-5" target="eJmVRCtUWlt2wiEQet3n-7" edge="1">
          <mxGeometry width="50" height="50" relative="1" as="geometry">
            <mxPoint x="310" y="430" as="sourcePoint" />
            <mxPoint x="360" y="380" as="targetPoint" />
            <Array as="points">
              <mxPoint x="320" y="390" />
            </Array>
          </mxGeometry>
        </mxCell>
        <mxCell id="eJmVRCtUWlt2wiEQet3n-16" value="" style="curved=1;endArrow=classic;rounded=0;exitX=0.5;exitY=0;exitDx=0;exitDy=0;entryX=0.5;entryY=1;entryDx=0;entryDy=0;fontFamily=SimSun;" parent="WIyWlLk6GJQsqaUBKTNV-1" source="eJmVRCtUWlt2wiEQet3n-7" target="eJmVRCtUWlt2wiEQet3n-8" edge="1">
          <mxGeometry width="50" height="50" relative="1" as="geometry">
            <mxPoint x="360" y="330" as="sourcePoint" />
            <mxPoint x="410" y="280" as="targetPoint" />
            <Array as="points">
              <mxPoint x="330" y="310" />
              <mxPoint x="260" y="310" />
            </Array>
          </mxGeometry>
        </mxCell>
        <mxCell id="eJmVRCtUWlt2wiEQet3n-17" value="" style="curved=1;endArrow=classic;rounded=0;exitX=0.5;exitY=0;exitDx=0;exitDy=0;entryX=0.5;entryY=1;entryDx=0;entryDy=0;fontFamily=SimSun;" parent="WIyWlLk6GJQsqaUBKTNV-1" source="eJmVRCtUWlt2wiEQet3n-7" target="eJmVRCtUWlt2wiEQet3n-9" edge="1">
          <mxGeometry width="50" height="50" relative="1" as="geometry">
            <mxPoint x="350" y="340" as="sourcePoint" />
            <mxPoint x="240" y="300" as="targetPoint" />
            <Array as="points">
              <mxPoint x="370" y="310" />
              <mxPoint x="420" y="310" />
            </Array>
          </mxGeometry>
        </mxCell>
        <mxCell id="eJmVRCtUWlt2wiEQet3n-18" value="" style="curved=1;endArrow=classic;rounded=0;exitX=0.5;exitY=0;exitDx=0;exitDy=0;entryX=1;entryY=0.5;entryDx=0;entryDy=0;fontFamily=SimSun;" parent="WIyWlLk6GJQsqaUBKTNV-1" source="eJmVRCtUWlt2wiEQet3n-9" target="eJmVRCtUWlt2wiEQet3n-10" edge="1">
          <mxGeometry width="50" height="50" relative="1" as="geometry">
            <mxPoint x="260" y="300" as="sourcePoint" />
            <mxPoint x="310" y="250" as="targetPoint" />
            <Array as="points">
              <mxPoint x="420" y="200" />
            </Array>
          </mxGeometry>
        </mxCell>
      </root>
    </mxGraphModel>
  </diagram>
</mxfile>
